<?xml version="1.0" encoding="utf-8"?>
<!-- Generator: Adobe Illustrator 21.1.0, SVG Export Plug-In . SVG Version: 6.00 Build 0)  -->
<svg version="1.1" xmlns="http://www.w3.org/2000/svg" xmlns:xlink="http://www.w3.org/1999/xlink" x="0px" y="0px"
	 viewBox="0 0 719.3 718.3" style="enable-background:new 0 0 719.3 718.3;" xml:space="preserve">
<style type="text/css">
	.st0{fill:#FFFFFF;}
	.st1{fill:#0090E3;}
	.st2{display:none;fill:#FF6600;}
	.st3{display:none;fill:#FFFFFF;}
	.st4{display:none;}
	.st5{display:inline;fill:#FFFFFF;}
	.st6{fill:#285DAB;}
	.st7{fill:#FF6600;}
	.st8{fill:#0095D6;}
	.st9{fill:none;stroke:#FF6600;stroke-width:12;stroke-miterlimit:10;}
	.st10{fill:none;stroke:#000000;stroke-miterlimit:10;}
	.st11{stroke:#000000;stroke-width:2;stroke-miterlimit:10;}
	.st12{fill:none;stroke:#000000;stroke-width:3;stroke-miterlimit:10;}
	.st13{display:inline;}
	.st14{fill:none;stroke:#FF6600;stroke-width:24.3542;stroke-miterlimit:10;}
	.st15{fill-rule:evenodd;clip-rule:evenodd;fill:#FFFFFF;}
	.st16{fill-rule:evenodd;clip-rule:evenodd;fill:#0090E3;}
	.st17{fill-rule:evenodd;clip-rule:evenodd;fill:#FF6600;}
</style>
<g id="Design">
</g>
<g id="Footer">
</g>
<g id="Tekst">
</g>
<g id="Color_scheme">
</g>
<g id="Logo">
</g>
<g id="GM_x2B_rechts" class="st4">
</g>
<g id="GM_x2B_links" class="st4">
</g>
<g id="GM-Schuinboven" class="st4">
</g>
<g id="GM_x2B_SchuinRechts">
	<path class="st17" d="M359.6,698.7c-187.8,0-340-152-340-339.6c0-187.5,152.2-339.5,340-339.5c187.8,0,340,152,340,339.5
		C699.6,546.7,547.4,698.7,359.6,698.7z"/>
	<g>
		<path class="st15" d="M269,295.4c0-8.6,1.1-16.2,3.3-22.9c2.2-6.7,5.7-12.3,10.6-16.8c4.9-4.5,11.1-8,18.7-10.3
			c7.6-2.3,16.9-3.5,27.8-3.5c10.8,0,20.1,1.2,27.7,3.5c7.6,2.3,13.9,5.8,18.8,10.3c4.9,4.5,8.4,10.1,10.6,16.8
			c2.2,6.7,3.3,14.3,3.3,22.9c0,8.7-1.1,16.3-3.3,23c-2.2,6.7-5.7,12.3-10.6,16.8c-4.9,4.5-11.1,8-18.8,10.3
			c-7.7,2.3-16.9,3.5-27.7,3.5c-10.9,0-20.2-1.2-27.8-3.5c-7.6-2.3-13.8-5.8-18.7-10.3c-4.8-4.5-8.4-10.1-10.6-16.8
			C270.1,311.7,269,304,269,295.4 M357.6,296.1c0-4.4-0.5-8.4-1.3-12c-0.9-3.6-2.4-6.7-4.5-9.3c-2.2-2.6-5-4.5-8.7-6
			c-3.6-1.4-8.2-2.1-13.7-2.1c-5.5,0-10.1,0.7-13.7,2.1c-3.7,1.4-6.5,3.4-8.7,6c-2.1,2.6-3.6,5.6-4.4,9.3c-0.8,3.6-1.2,7.6-1.2,12
			c0,4.4,0.4,8.4,1.2,12c0.8,3.6,2.3,6.7,4.4,9.3c2.1,2.6,5,4.7,8.7,6.1c3.6,1.5,8.2,2.2,13.7,2.2c5.5,0,10.1-0.7,13.7-2.2
			c3.6-1.5,6.5-3.5,8.7-6.1c2.1-2.6,3.6-5.7,4.5-9.3C357.1,304.5,357.6,300.5,357.6,296.1"/>
		<path class="st15" d="M400.3,295.4c0-8.6,1.1-16.2,3.3-22.9c2.2-6.7,5.7-12.3,10.6-16.8c4.9-4.5,11.1-8,18.7-10.3
			c7.6-2.3,16.9-3.5,27.8-3.5c10.8,0,20.1,1.2,27.8,3.5c7.6,2.3,13.9,5.8,18.7,10.3c4.9,4.5,8.4,10.1,10.6,16.8
			c2.2,6.7,3.3,14.3,3.3,22.9c0,8.7-1.1,16.3-3.3,23c-2.2,6.7-5.7,12.3-10.6,16.8c-4.9,4.5-11.1,8-18.7,10.3
			c-7.7,2.3-16.9,3.5-27.8,3.5c-10.9,0-20.2-1.2-27.8-3.5c-7.6-2.3-13.8-5.8-18.7-10.3c-4.8-4.5-8.4-10.1-10.6-16.8
			C401.3,311.7,400.3,304,400.3,295.4 M488.8,296.1c0-4.4-0.4-8.4-1.3-12c-0.9-3.6-2.4-6.7-4.5-9.3c-2.1-2.6-5.1-4.5-8.7-6
			c-3.6-1.4-8.2-2.1-13.7-2.1c-5.5,0-10.1,0.7-13.7,2.1c-3.6,1.4-6.5,3.4-8.6,6c-2.2,2.6-3.7,5.6-4.5,9.3c-0.8,3.6-1.2,7.6-1.2,12
			c0,4.4,0.4,8.4,1.2,12c0.8,3.6,2.3,6.7,4.5,9.3c2.1,2.6,5,4.7,8.6,6.1c3.6,1.5,8.2,2.2,13.7,2.2c5.5,0,10.1-0.7,13.7-2.2
			c3.6-1.5,6.5-3.5,8.7-6.1c2.1-2.6,3.6-5.7,4.5-9.3C488.4,304.5,488.8,300.5,488.8,296.1"/>
		<path class="st15" d="M569.4,322c1,0.9,1.5,1.9,1.5,3.1v19.1c0,1.3-0.5,2.4-1.5,3.4c-1,0.9-2.2,1.3-3.6,1.3h-8.7H557h-19.9
			c-1.6,0-3-0.5-4.1-1.5c-1.1-1-1.7-2.2-1.7-3.7v-10.7v-0.1V218.4v-5c0-1.2,0.5-2.3,1.4-3.2c1-0.9,2.2-1.3,3.6-1.3h21.5
			c1.4,0,2.6,0.4,3.6,1.3c0.9,0.9,1.4,2,1.4,3.2v14.5v83.4c0,7.7,0,6.4,0,9.3h2.7h0.3C567.3,320.7,568.5,321.1,569.4,322"/>
		<path class="st15" d="M332.8,480.6c1,0.9,1.5,2,1.5,3.3v20c0,1.4-0.5,2.5-1.5,3.5c-1,1-2.3,1.4-3.8,1.4H320h-0.1h-20.8
			c-1.7,0-3.1-0.5-4.3-1.6c-1.2-1.1-1.7-2.3-1.7-3.8v-11.2V492V372.2v-5.2c0-1.3,0.5-2.4,1.5-3.3c1-0.9,2.3-1.4,3.7-1.4h22.5
			c1.5,0,2.7,0.5,3.8,1.4c1,1,1.5,2.1,1.5,3.3v4.4v98c0,8.1,0,6.8,0,9.7h2.8h0.3C330.6,479.2,331.8,479.7,332.8,480.6"/>
		<path class="st15" d="M261.1,326.9l-8.2-10.7c-0.9-1.2-1.9-1.8-3.2-1.9c-1.2-0.1-2.5,0.3-3.8,1.3c-2.3,1.5-10.4,9.4-32.6,9.4
			c-16.2,0-35.3-8.7-35.3-29.5c0-20.5,20.3-29.5,35.3-29.5c20.9,0,30.4,7.8,32.6,9.4c1.3,1,2.6,1.4,3.8,1.3c1.3-0.1,2.3-0.8,3.2-1.9
			l8.2-10.7c1.4-1.7,1.4-1.8,1.9-2.5c3-3.8-2.8-7.5-3-7.6c-3.8-2.6-5.9-3.7-9.2-5.4c-3.3-1.7-6.8-3-10.4-4c-3.7-1-7.7-1.7-12-2.2
			c-4.3-0.4-9.3-0.6-15.2-0.6c-12.9,0-23.4,1.5-31.6,4.5c-8.1,3-34.4,15.3-34.4,48.1c0,34.3,26.3,47.4,34.4,50.5
			c8.1,3,18.6,4.5,31.6,4.5c5.8,0,10.9-0.2,15.2-0.6c4.3-0.4,8.3-1.2,12-2.2c3.6-1,7.1-2.4,10.4-4c3.3-1.7,5.4-2.8,9.2-5.4
			c0.2-0.1,6-3.9,3-7.7C262.5,328.7,262.5,328.6,261.1,326.9"/>
		<path class="st15" d="M154.5,504.3c0,1.4,0.5,2.5,1.6,3.4c1,0.9,2.3,1.4,3.8,1.4c0,0,25.6-0.1,26.6-0.4c1-0.2,1.5-0.9,1.5-2.2
			l0.2-3.3c4.2,1.6,9,3.1,14.4,4.3c5.5,1.2,11.6,1.8,18.3,1.8c11.3,0,20.8-1.2,28.8-3.7c7.9-2.4,14.4-6,19.4-10.7
			c5-4.7,8.6-10.5,10.9-17.4c2.2-6.9,3.3-15,3.3-24c0-9-1.2-17-3.5-24c-2.3-7-6-12.8-11-17.6c-5-4.8-11.5-8.4-19.5-10.8
			c-8-2.4-17.7-3.7-29-3.7c-6.7,0-12.6,0.4-17.9,1.3c-5.3,0.8-9.9,2.1-14.1,3.7v-23.1v-0.2v-11.1c0-0.1,0-0.3,0-0.4v-0.3
			c-0.1-1.3-0.7-2.4-1.7-3.3c-1-0.9-2.3-1.4-3.8-1.4h-0.6h-22.3c-1.5,0-2.7,0.5-3.7,1.4c-1,0.9-1.5,2.1-1.5,3.5L154.5,504.3z
			 M248.2,466.9c-0.9,3.7-2.4,6.8-4.7,9.4c-2.2,2.6-5.2,4.6-9,6c-3.8,1.4-8.5,2.1-14.3,2.1c-5.7,0-10.5-0.7-14.3-2.1
			c-3.8-1.4-6.8-3.4-9-6c-2.2-2.6-3.8-5.7-4.7-9.4c-0.9-3.7-1.4-7.8-1.4-12.3c0-4.6,0.4-8.8,1.4-12.5c0.9-3.7,2.5-7,4.7-9.7
			c2.2-2.7,5.2-4.8,9-6.3c3.8-1.5,8.5-2.2,14.3-2.2c5.8,0,10.5,0.7,14.3,2.2c3.8,1.5,6.7,3.6,9,6.3c2.3,2.7,3.8,5.9,4.7,9.7
			c0.9,3.8,1.4,8,1.4,12.5C249.5,459.1,249.1,463.2,248.2,466.9z"/>
		<path class="st15" d="M446.5,399.1c1,0.9,1.5,2.1,1.5,3.3v3.2v16.1v33.4c0,9.4-0.7,17.6-2.3,24.3c-1.5,6.8-4.2,12.3-8,16.7
			c-3.9,4.3-9.2,7.4-16,9.4c-6.8,2-15.5,3.1-26,3.1c-10.5,0-19.2-1-26-3.1c-6.9-2-12.3-5.2-16.2-9.4c-4-4.3-6.7-9.8-8.2-16.6
			c-1.5-6.8-2.3-14.8-2.3-24.3v-33.6v-11.8v-7.5c0-1.3,0.5-2.4,1.5-3.3c1-1,2.3-1.5,3.8-1.5h3h14.8h2.2c1.5,0,2.7,0.5,3.8,1.5
			c1.1,0.9,1.6,2.1,1.6,3.3v19.3v34.2c0,3.8,0,7.4,0.2,10.6c0.3,3.2,1.1,6,2.5,8.3c1.4,2.3,3.7,4.1,6.7,5.4
			c3.1,1.3,7.3,1.9,12.7,1.9c5.4,0,9.6-0.6,12.6-1.9c3-1.3,5.2-3.1,6.6-5.4c1.4-2.3,2.3-5.1,2.6-8.4c0.2-3.2,0.4-6.8,0.4-10.6v-34.1
			v-19.3c0-1.3,0.6-2.4,1.5-3.3c1-1,2.3-1.5,3.8-1.5h2.7h9.4h7.3C444.3,397.6,445.6,398.1,446.5,399.1"/>
		<path class="st15" d="M489.6,442.6c0.4-3.3,1.2-6.2,2.3-8.8c1.1-2.6,2.8-4.8,5-6.6c2.2-1.8,5-3.2,8.5-4.2c3.4-1,7.6-1.5,12.7-1.5
			c5.1,0,9.2,0.5,12.2,1.6c3,1.1,5.4,2.6,7,4.4c1.7,1.9,2.8,4.1,3.4,6.7c0.6,2.6,1,5.4,1.3,8.5H509c-2.7,0-2.8,2.7-2.8,2.7v16.2
			c0,0,0,2.4,2.8,2.4h62.9c0.1-5.9,0.1-11.7,0-17.3c-0.1-5.6-0.6-10.8-1.7-15.7c-1-4.9-2.6-9.4-4.8-13.5c-2.2-4.1-5.2-7.5-9.1-10.4
			c-3.9-2.9-8.9-5.2-15-6.8c-6.1-1.6-13.4-2.4-22-2.4c-12.6,0-22.9,1.5-30.9,4.6c-8,3-14.2,7.1-18.7,12.2c-4.5,5.1-7.6,11-9.2,17.8
			c-1.7,6.7-2.5,13.8-2.5,21.3c0,7.6,0.8,14.8,2.5,21.6c1.6,6.7,4.7,12.7,9.1,17.8c4.5,5.1,10.7,9.1,18.8,12.1
			c8,3,18.4,4.5,31.1,4.5c5.8,0,10.7-0.2,15-0.6c4.3-0.4,8.2-1.2,11.8-2.2c3.6-1,7-2.3,10.3-4c3.2-1.7,5.3-2.8,9.1-5.4
			c0.2-0.1,5.9-3.8,3-7.6c-0.5-0.7-0.5-0.7-1.9-2.4l-8.1-10.5c-0.8-1.2-1.9-1.8-3.1-1.9c-1.2-0.1-2.5,0.3-3.7,1.3
			c-2.3,1.5-4.3,2.8-6.2,3.9c-1.9,1.1-4.1,2.1-6.4,2.9c-2.3,0.8-5.1,1.4-8.1,1.8c-3.1,0.4-6.9,0.6-11.5,0.6c-5.3,0-9.7-0.5-13.3-1.5
			c-3.5-1-6.5-2.5-8.8-4.4c-2.3-1.9-4-4.2-5.3-6.9c-1.2-2.6-2.1-5.6-2.5-8.7C488.3,454.3,489.6,442.6,489.6,442.6"/>
	</g>
</g>
</svg>
